<svg viewBox="0 0 954 400" xmlns="http://www.w3.org/2000/svg"><g><g><g><g><g><line x1="51.5625" y1="377" x2="46.5625" y2="377" style="visibility: inherit;" fill="rgb(0, 0, 0)" stroke="rgb(204, 204, 204)" stroke-width="1px"></line><line x1="51.5625" y1="348" x2="46.5625" y2="348" style="visibility: inherit;" fill="rgb(0, 0, 0)" stroke="rgb(204, 204, 204)" stroke-width="1px"></line><line x1="51.5625" y1="319" x2="46.5625" y2="319" style="visibility: inherit;" fill="rgb(0, 0, 0)" stroke="rgb(204, 204, 204)" stroke-width="1px"></line><line x1="51.5625" y1="290" x2="46.5625" y2="290" style="visibility: inherit;" fill="rgb(0, 0, 0)" stroke="rgb(204, 204, 204)" stroke-width="1px"></line><line x1="51.5625" y1="261" x2="46.5625" y2="261" style="visibility: inherit;" fill="rgb(0, 0, 0)" stroke="rgb(204, 204, 204)" stroke-width="1px"></line><line x1="51.5625" y1="231.99999999999997" x2="46.5625" y2="231.99999999999997" style="visibility: inherit;" fill="rgb(0, 0, 0)" stroke="rgb(204, 204, 204)" stroke-width="1px"></line><line x1="51.5625" y1="203" x2="46.5625" y2="203" style="visibility: inherit;" fill="rgb(0, 0, 0)" stroke="rgb(204, 204, 204)" stroke-width="1px"></line><line x1="51.5625" y1="173.99999999999997" x2="46.5625" y2="173.99999999999997" style="visibility: inherit;" fill="rgb(0, 0, 0)" stroke="rgb(204, 204, 204)" stroke-width="1px"></line><line x1="51.5625" y1="144.99999999999994" x2="46.5625" y2="144.99999999999994" style="visibility: inherit;" fill="rgb(0, 0, 0)" stroke="rgb(204, 204, 204)" stroke-width="1px"></line><line x1="51.5625" y1="115.99999999999997" x2="46.5625" y2="115.99999999999997" style="visibility: inherit;" fill="rgb(0, 0, 0)" stroke="rgb(204, 204, 204)" stroke-width="1px"></line><line x1="51.5625" y1="86.99999999999994" x2="46.5625" y2="86.99999999999994" style="visibility: inherit;" fill="rgb(0, 0, 0)" stroke="rgb(204, 204, 204)" stroke-width="1px"></line><line x1="51.5625" y1="58" x2="46.5625" y2="58" style="visibility: inherit;" fill="rgb(0, 0, 0)" stroke="rgb(204, 204, 204)" stroke-width="1px"></line><line x1="51.5625" y1="28.999999999999982" x2="46.5625" y2="28.999999999999982" style="visibility: inherit;" fill="rgb(0, 0, 0)" stroke="rgb(204, 204, 204)" stroke-width="1px"></line><line x1="51.5625" y1="0" x2="46.5625" y2="0" style="visibility: inherit;" fill="rgb(0, 0, 0)" stroke="rgb(204, 204, 204)" stroke-width="1px"></line></g><g transform="translate(41.5625, 0)"><text x="0" y="377" dx="0em" dy="0.3em" style="text-anchor: end; visibility: hidden; font-family: Roboto, sans-serif; font-size: 12px; font-weight: 200;" fill="rgb(33, 33, 33)" stroke="none" stroke-width="1px">0.05</text><text x="0" y="348" dx="0em" dy="0.3em" style="text-anchor: end; visibility: inherit; font-family: Roboto, sans-serif; font-size: 12px; font-weight: 200;" fill="rgb(33, 33, 33)" stroke="none" stroke-width="1px">0.1</text><text x="0" y="319" dx="0em" dy="0.3em" style="text-anchor: end; visibility: inherit; font-family: Roboto, sans-serif; font-size: 12px; font-weight: 200;" fill="rgb(33, 33, 33)" stroke="none" stroke-width="1px">0.15</text><text x="0" y="290" dx="0em" dy="0.3em" style="text-anchor: end; visibility: inherit; font-family: Roboto, sans-serif; font-size: 12px; font-weight: 200;" fill="rgb(33, 33, 33)" stroke="none" stroke-width="1px">0.2</text><text x="0" y="261" dx="0em" dy="0.3em" style="text-anchor: end; visibility: inherit; font-family: Roboto, sans-serif; font-size: 12px; font-weight: 200;" fill="rgb(33, 33, 33)" stroke="none" stroke-width="1px">0.25</text><text x="0" y="231.99999999999997" dx="0em" dy="0.3em" style="text-anchor: end; visibility: inherit; font-family: Roboto, sans-serif; font-size: 12px; font-weight: 200;" fill="rgb(33, 33, 33)" stroke="none" stroke-width="1px">0.3</text><text x="0" y="203" dx="0em" dy="0.3em" style="text-anchor: end; visibility: inherit; font-family: Roboto, sans-serif; font-size: 12px; font-weight: 200;" fill="rgb(33, 33, 33)" stroke="none" stroke-width="1px">0.35</text><text x="0" y="173.99999999999997" dx="0em" dy="0.3em" style="text-anchor: end; visibility: inherit; font-family: Roboto, sans-serif; font-size: 12px; font-weight: 200;" fill="rgb(33, 33, 33)" stroke="none" stroke-width="1px">0.4</text><text x="0" y="144.99999999999994" dx="0em" dy="0.3em" style="text-anchor: end; visibility: inherit; font-family: Roboto, sans-serif; font-size: 12px; font-weight: 200;" fill="rgb(33, 33, 33)" stroke="none" stroke-width="1px">0.45</text><text x="0" y="115.99999999999997" dx="0em" dy="0.3em" style="text-anchor: end; visibility: inherit; font-family: Roboto, sans-serif; font-size: 12px; font-weight: 200;" fill="rgb(33, 33, 33)" stroke="none" stroke-width="1px">0.5</text><text x="0" y="86.99999999999994" dx="0em" dy="0.3em" style="text-anchor: end; visibility: inherit; font-family: Roboto, sans-serif; font-size: 12px; font-weight: 200;" fill="rgb(33, 33, 33)" stroke="none" stroke-width="1px">0.55</text><text x="0" y="58" dx="0em" dy="0.3em" style="text-anchor: end; visibility: inherit; font-family: Roboto, sans-serif; font-size: 12px; font-weight: 200;" fill="rgb(33, 33, 33)" stroke="none" stroke-width="1px">0.6</text><text x="0" y="28.999999999999982" dx="0em" dy="0.3em" style="text-anchor: end; visibility: inherit; font-family: Roboto, sans-serif; font-size: 12px; font-weight: 200;" fill="rgb(33, 33, 33)" stroke="none" stroke-width="1px">0.65</text><text x="0" y="0" dx="0em" dy="0.3em" style="text-anchor: end; visibility: hidden; font-family: Roboto, sans-serif; font-size: 12px; font-weight: 200;" fill="rgb(33, 33, 33)" stroke="none" stroke-width="1px">0.7</text></g><line x1="51.5625" y1="0" x2="51.5625" y2="377" fill="rgb(0, 0, 0)" stroke="rgb(204, 204, 204)" stroke-width="1px"></line></g></g><g transform="translate(51, 0)" clip-path="url(#clip_0)"><clipPath id="clip_0"><rect width="902" height="377"></rect></clipPath><g><g><g><line x1="0" y1="0" x2="0" y2="377" fill="rgb(0, 0, 0)" stroke="rgb(66, 66, 66)" stroke-width="1px" opacity="0.25"></line><line x1="100.27083333333333" y1="0" x2="100.27083333333333" y2="377" fill="rgb(0, 0, 0)" stroke="rgb(66, 66, 66)" stroke-width="1px" opacity="0.25"></line><line x1="200.54166666666666" y1="0" x2="200.54166666666666" y2="377" fill="rgb(0, 0, 0)" stroke="rgb(66, 66, 66)" stroke-width="1px" opacity="0.25"></line><line x1="300.8125" y1="0" x2="300.8125" y2="377" fill="rgb(0, 0, 0)" stroke="rgb(66, 66, 66)" stroke-width="1px" opacity="0.25"></line><line x1="401.0833333333333" y1="0" x2="401.0833333333333" y2="377" fill="rgb(0, 0, 0)" stroke="rgb(66, 66, 66)" stroke-width="1px" opacity="0.25"></line><line x1="501.3541666666667" y1="0" x2="501.3541666666667" y2="377" fill="rgb(0, 0, 0)" stroke="rgb(66, 66, 66)" stroke-width="1px" opacity="0.25"></line><line x1="601.625" y1="0" x2="601.625" y2="377" fill="rgb(0, 0, 0)" stroke="rgb(66, 66, 66)" stroke-width="1px" opacity="0.25"></line><line x1="701.8958333333334" y1="0" x2="701.8958333333334" y2="377" fill="rgb(0, 0, 0)" stroke="rgb(66, 66, 66)" stroke-width="1px" opacity="0.25"></line><line x1="802.1666666666666" y1="0" x2="802.1666666666666" y2="377" fill="rgb(0, 0, 0)" stroke="rgb(66, 66, 66)" stroke-width="1px" opacity="0.25"></line><line x1="902.4375" y1="0" x2="902.4375" y2="377" fill="rgb(0, 0, 0)" stroke="rgb(66, 66, 66)" stroke-width="1px" opacity="0.25"></line></g><g><line x1="0" y1="377" x2="902.4375" y2="377" fill="rgb(0, 0, 0)" stroke="rgb(66, 66, 66)" stroke-width="1px" opacity="0.25"></line><line x1="0" y1="348" x2="902.4375" y2="348" fill="rgb(0, 0, 0)" stroke="rgb(66, 66, 66)" stroke-width="1px" opacity="0.25"></line><line x1="0" y1="319" x2="902.4375" y2="319" fill="rgb(0, 0, 0)" stroke="rgb(66, 66, 66)" stroke-width="1px" opacity="0.25"></line><line x1="0" y1="290" x2="902.4375" y2="290" fill="rgb(0, 0, 0)" stroke="rgb(66, 66, 66)" stroke-width="1px" opacity="0.25"></line><line x1="0" y1="261" x2="902.4375" y2="261" fill="rgb(0, 0, 0)" stroke="rgb(66, 66, 66)" stroke-width="1px" opacity="0.25"></line><line x1="0" y1="231.99999999999997" x2="902.4375" y2="231.99999999999997" fill="rgb(0, 0, 0)" stroke="rgb(66, 66, 66)" stroke-width="1px" opacity="0.25"></line><line x1="0" y1="203" x2="902.4375" y2="203" fill="rgb(0, 0, 0)" stroke="rgb(66, 66, 66)" stroke-width="1px" opacity="0.25"></line><line x1="0" y1="173.99999999999997" x2="902.4375" y2="173.99999999999997" fill="rgb(0, 0, 0)" stroke="rgb(66, 66, 66)" stroke-width="1px" opacity="0.25"></line><line x1="0" y1="144.99999999999994" x2="902.4375" y2="144.99999999999994" fill="rgb(0, 0, 0)" stroke="rgb(66, 66, 66)" stroke-width="1px" opacity="0.25"></line><line x1="0" y1="115.99999999999997" x2="902.4375" y2="115.99999999999997" fill="rgb(0, 0, 0)" stroke="rgb(66, 66, 66)" stroke-width="1px" opacity="0.25"></line><line x1="0" y1="86.99999999999994" x2="902.4375" y2="86.99999999999994" fill="rgb(0, 0, 0)" stroke="rgb(66, 66, 66)" stroke-width="1px" opacity="0.25"></line><line x1="0" y1="58" x2="902.4375" y2="58" fill="rgb(0, 0, 0)" stroke="rgb(66, 66, 66)" stroke-width="1px" opacity="0.25"></line><line x1="0" y1="28.999999999999982" x2="902.4375" y2="28.999999999999982" fill="rgb(0, 0, 0)" stroke="rgb(66, 66, 66)" stroke-width="1px" opacity="0.25"></line><line x1="0" y1="0" x2="902.4375" y2="0" fill="rgb(0, 0, 0)" stroke="rgb(66, 66, 66)" stroke-width="1px" opacity="0.25"></line></g></g></g><g><g><line x1="0" y1="406" x2="902.4375" y2="406" fill="rgb(0, 0, 0)" stroke="rgb(153, 153, 153)" stroke-width="1.5px"></line></g></g><g><g><line x1="100.27083333333333" y1="0" x2="100.27083333333333" y2="377" fill="rgb(0, 0, 0)" stroke="rgb(153, 153, 153)" stroke-width="1.5px"></line></g></g><g><g><g><g><g><path stroke="rgb(255, 112, 67)" stroke-width="2px" d="M135.26535416666667,-65.64098042788602L140.27889583333334,26.521395474758048L145.2924375,-17.661420167199314L150.30597916666667,41.129297148489655L155.3195208333333,93.0682267728608L160.3330625,110.73531607524562L165.34660416666668,156.54950036586976L170.36014583333332,129.2558673341373L175.3736875,162.59194027375793L180.38722916666666,210.24098635903707L185.40077083333335,172.3667103236107L190.4143125,192.08561488957116L195.42785416666666,213.82040986778773L200.44139583333333,256.5322231549502L205.4549375,244.9779592309059L210.46847916666667,216.3601737763485L215.48202083333334,224.56914088672445L220.4955625,250.08716423255248L225.50910416666667,242.6654823001632L230.5226458333333,131.16549150784166L235.5361875,215.52937833685561L240.54972916666665,228.15974577366885L245.56327083333335,246.0722033702699L250.57681250000002,260.104028640239L255.59035416666666,247.8092995655393L260.60389583333335,216.8279164078366L265.6174375,202.15341041601434L270.63097916666663,238.29879014410318L275.64452083333333,242.0401208609831L280.65806249999997,245.60446190996714L285.67160416666667,240.02251092414915L290.68514583333337,286.29418043283664L295.6986875,291.5835533974476L300.71222916666665,286.770707293151L305.72577083333334,302.67293237757474L310.7393125,262.2525725594066L315.7528541666667,278.433956879931L320.7663958333333,270.5831704236718L325.7799375,269.04789233773795L330.7934791666667,221.40401773495276L335.80702083333335,262.8826577490759L340.8205625,234.65361603591194L345.8341041666667,267.606642559575L350.84764583333333,262.6802109213711L355.86118749999997,272.7602968771971L360.87472916666667,270.38402000424867L365.8882708333333,263.02027740094326L370.9018125,260.2040032268332L375.9153541666667,289.4420043302223L380.92889583333334,266.61978614762427L385.9424375,272.7227339532091L390.9559791666667,282.9842071405731L395.9695208333333,267.9535424155987L400.9830625,301.49254595297725L405.99660416666666,303.6490398589263L411.0101458333333,298.54473735949324L416.0236875,272.23545223510786L421.0372291666667,305.71450980923515L426.05077083333333,315.97738871825896L431.0643125,312.64245291860794L436.07785416666667,334.93045308775845L441.0913958333333,347.78444559924094L446.1049375,324.23122820587326L451.11847916666665,330.0281205256663L456.13202083333334,311.6518766212393L461.1455625,317.6939722852665L466.1591041666667,338.70596559982044L471.1726458333333,329.60590133750765L476.18618749999996,333.8283812623282L481.1997291666667,331.9512778533137L486.21327083333335,341.0664006717584L491.2268125,348.43533796355615L496.24035416666663,331.35527054241595L501.2538958333333,327.0759883151727L506.2674375,337.54914331592784L511.2809791666667,345.6178088912825L516.2945208333333,337.41948523100973L521.3080625,321.94023300395463L526.3216041666666,343.668569703019L531.3351458333333,324.26686109251756L536.3486875000001,347.909991235417L541.3622291666667,338.84503968410604L546.3757708333334,322.24158067615576L551.3893125,278.99038149781074L556.4028541666667,300.23394166151905L561.4163958333332,333.68014504146714L566.4299375,337.69327654619303L571.4434791666666,359.6638118963199L576.4570208333333,357.3268840396855L581.4705625,337.4844840815338L586.4841041666666,329.7265248328848L591.4976458333334,339.83560837688464L596.5111875,327.3364454590227L601.5247291666667,337.5642395307389L606.5382708333333,332.7889737301926L611.5518125,349.43968488060597L616.5653541666667,351.43080042173364L621.5788958333334,306.16469377499755L626.5924375000001,307.22428869141305L631.6059791666667,278.0949235852549L636.6195208333334,312.440288978576L641.6330624999999,331.96697697505914L646.6466041666666,335.1883393494222L651.6601458333333,360.86030048834886L656.6736875,320.7218929928994L661.6872291666666,314.2854626895461L666.7007708333333,328.7065113378449L671.7143125,301.34476227717903L676.7278541666667,304.7075635621387L681.7413958333334,321.0614743131065L686.7549375,348.0469313977756L691.7684791666667,356.7058227132915L696.7820208333333,345.00848520226236L701.7955625,319.365142061871L706.8091041666667,311.0988219467173L711.8226458333334,309.83177460952817L716.8361875,335.1008899314655L721.8497291666666,352.88472775837505L726.8632708333333,320.0880541099353L731.8768125,342.94505048353926L736.8903541666667,344.80093850230844L741.9038958333333,322.02853654346274L746.9174375,339.3348885686481L751.9309791666666,331.1703159517815L756.9445208333333,333.4120541517002L761.9580625000001,350.33439076567066L766.9716041666667,355.84465814008934L771.9851458333334,354.5154848478712L776.9986875,370.7816873599576L782.0122291666667,361.3976061945848L787.0257708333332,375.81989674304083L792.0393125,382.77782571336127L797.0528541666666,295.6408297778397L802.0663958333333,310.36968410976107L807.0799375,336.8561120925389L812.0934791666666,333.2203096448208L817.1070208333334,329.330883783032L822.1205625,298.45010435696213L827.1341041666667,225.30802285740234L832.1476458333333,257.4146076444951L837.1611875,308.4480392816167L842.1747291666667,324.16080190435054L847.1882708333334,334.9426886301935L852.2018125000001,338.97997458348874" style="fill: none;" fill="none"></path></g></g></g></g><g opacity="0.2"><g><g><g><path stroke="rgb(255, 112, 67)" stroke-width="2px" d="M115.21118750000001,-163.5793557167054L120.22472916666666,4.514282703399619L125.23827083333333,4.982577323913535L130.2518125,2.0807478427886803L135.26535416666667,-88.41879510879517L140.27889583333334,160.89502429962155L145.2924375,-82.82249116897587L150.30597916666667,128.426660656929L155.3195208333333,170.50553894042966L160.3330625,137.1398065090179L165.34660416666668,225.12118554115293L170.36014583333332,88.36888885498041L175.3736875,212.55686438083646L180.38722916666666,281.68094968795776L185.40077083333335,115.57132339477533L190.4143125,221.65896511077878L195.42785416666666,246.41929125785825L200.44139583333333,320.59603905677795L205.4549375,227.6471970081329L210.46847916666667,173.4344372749328L215.48202083333334,236.88242948055267L220.4955625,288.36389696598053L225.50910416666667,231.5330121517181L230.5226458333333,-36.08401918411262L235.5361875,342.0749927163124L240.54972916666665,247.10527753829953L245.56327083333335,272.9408732652664L250.57681250000002,281.1517587900162L255.59035416666666,229.3672100305557L260.60389583333335,170.35584783554074L265.6174375,180.14165318012232L270.63097916666663,292.5168571472168L275.64452083333333,247.65211677551264L280.65806249999997,250.95097339153287L285.67160416666667,231.64958453178403L290.68514583333337,355.7016842663288L295.6986875,299.5176128149032L300.71222916666665,279.55143815279007L305.72577083333334,326.52626997232437L310.7393125,201.62203288078308L315.7528541666667,302.70603334903717L320.7663958333333,258.80699074268335L325.7799375,266.74497520923615L330.7934791666667,149.9382058382034L335.80702083333335,325.1006177663803L340.8205625,192.31005346775052L345.8341041666667,317.0361823439598L350.84764583333333,255.2905634641647L355.86118749999997,287.8804258108139L360.87472916666667,266.81960469484324L365.8882708333333,251.97466349601743L370.9018125,255.97959196567535L375.9153541666667,333.29900598526L380.92889583333334,232.38645887374875L385.9424375,281.87715566158295L390.9559791666667,298.3764169216156L395.9695208333333,245.4075453281402L400.9830625,351.80105125904083L405.99660416666666,306.88378071784973L411.0101458333333,290.88828361034393L416.0236875,232.77152454853055L421.0372291666667,355.9330961704254L426.05077083333333,331.37170708179474L431.0643125,307.6400492191314L436.07785416666667,368.36245334148407L441.0913958333333,367.0654343664646L446.1049375,288.90140211582184L451.11847916666665,338.72345900535583L456.13202083333334,284.08751076459885L461.1455625,326.7571157813072L466.1591041666667,370.22395557165146L471.1726458333333,315.9558049440384L476.18618749999996,340.162101149559L481.1997291666667,329.13562273979187L486.21327083333335,354.7390848994255L491.2268125,359.48874390125275L496.24035416666663,305.73516941070557L501.2538958333333,320.657064974308L506.2674375,353.25887581706047L511.2809791666667,357.7208072543144L516.2945208333333,325.1219997406006L521.3080625,298.721354663372L526.3216041666666,376.2610747516155L531.3351458333333,295.16429817676544L536.3486875000001,383.3746864497661L541.3622291666667,325.2476123571396L546.3757708333334,297.3363921642303L551.3893125,214.11358273029325L556.4028541666667,332.0992819070816L561.4163958333332,383.8494501113892L566.4299375,343.7129738032818L571.4434791666666,392.61961492151016L576.4570208333333,353.82149225473404L581.4705625,307.7208841443062L586.4841041666666,318.08958595991135L591.4976458333334,354.99923369288445L596.5111875,308.5877010822296L601.5247291666667,352.9059306383133L606.5382708333333,325.62607502937317L611.5518125,374.41575160622597L616.5653541666667,354.41747373342514L621.5788958333334,238.26553380489347L626.5924375000001,308.8136810660362L631.6059791666667,234.40087592601773L636.6195208333334,363.95833706855774L641.6330624999999,361.2570089697838L646.6466041666666,340.0203829109669L651.6601458333333,399.3682421967387L656.6736875,260.51428174972534L661.6872291666666,304.63081723451614L666.7007708333333,350.3380843102932L671.7143125,260.30213868618006L676.7278541666667,309.75176548957825L681.7413958333334,345.59234043955803L686.7549375,388.5251170247794L691.7684791666667,369.6941596865654L696.7820208333333,327.46247893571854L701.7955625,280.90012735128397L706.8091041666667,298.6993417739868L711.8226458333334,307.9312036037445L716.8361875,373.0045629143715L721.8497291666666,379.56048449873924L726.8632708333333,270.8930436372757L731.8768125,377.2305450439453L736.8903541666667,347.58477053046227L741.9038958333333,287.8699336051941L746.9174375,365.29441660642624L751.9309791666666,318.9234570264816L756.9445208333333,336.77466145157814L761.9580625000001,375.71789568662643L766.9716041666667,364.1100592017174L771.9851458333334,352.521724909544L776.9986875,395.18099112808704L782.0122291666667,347.3214844465256L787.0257708333332,397.45333256572485L792.0393125,393.21471916884184L797.0528541666666,164.93533587455744L802.0663958333333,332.4629656076431L807.0799375,376.5857540667057L812.0934791666666,327.7666059732437L817.1070208333334,323.4967449903488L822.1205625,252.12893521785733L827.1341041666667,115.59490060806272L832.1476458333333,305.5744848251343L837.1611875,384.99818673729897L842.1747291666667,347.7299458384514L847.1882708333334,351.1155187189579L852.2018125000001,345.03590351343155" style="fill: none;" fill="none"></path></g></g></g></g></g></g><g transform="translate(51, 377)" clip-path="url(#clip_1)"><clipPath id="clip_1"><rect width="902" height="23"></rect></clipPath><g><g><line x1="0" y1="0" x2="0" y2="5" style="visibility: inherit;" fill="rgb(0, 0, 0)" stroke="rgb(204, 204, 204)" stroke-width="1px"></line><line x1="100.27083333333333" y1="0" x2="100.27083333333333" y2="5" style="visibility: inherit;" fill="rgb(0, 0, 0)" stroke="rgb(204, 204, 204)" stroke-width="1px"></line><line x1="200.54166666666666" y1="0" x2="200.54166666666666" y2="5" style="visibility: inherit;" fill="rgb(0, 0, 0)" stroke="rgb(204, 204, 204)" stroke-width="1px"></line><line x1="300.8125" y1="0" x2="300.8125" y2="5" style="visibility: inherit;" fill="rgb(0, 0, 0)" stroke="rgb(204, 204, 204)" stroke-width="1px"></line><line x1="401.0833333333333" y1="0" x2="401.0833333333333" y2="5" style="visibility: inherit;" fill="rgb(0, 0, 0)" stroke="rgb(204, 204, 204)" stroke-width="1px"></line><line x1="501.3541666666667" y1="0" x2="501.3541666666667" y2="5" style="visibility: inherit;" fill="rgb(0, 0, 0)" stroke="rgb(204, 204, 204)" stroke-width="1px"></line><line x1="601.625" y1="0" x2="601.625" y2="5" style="visibility: inherit;" fill="rgb(0, 0, 0)" stroke="rgb(204, 204, 204)" stroke-width="1px"></line><line x1="701.8958333333334" y1="0" x2="701.8958333333334" y2="5" style="visibility: inherit;" fill="rgb(0, 0, 0)" stroke="rgb(204, 204, 204)" stroke-width="1px"></line><line x1="802.1666666666666" y1="0" x2="802.1666666666666" y2="5" style="visibility: inherit;" fill="rgb(0, 0, 0)" stroke="rgb(204, 204, 204)" stroke-width="1px"></line><line x1="902.4375" y1="0" x2="902.4375" y2="5" style="visibility: inherit;" fill="rgb(0, 0, 0)" stroke="rgb(204, 204, 204)" stroke-width="1px"></line></g><g transform="translate(0, 8)"><text x="0" y="0" dx="0em" dy="0.95em" style="text-anchor: middle; visibility: hidden; font-family: Roboto, sans-serif; font-size: 12px; font-weight: 200;" fill="rgb(33, 33, 33)" stroke="none" stroke-width="1px">-1k</text><text x="100.27083333333333" y="0" dx="0em" dy="0.95em" style="text-anchor: middle; visibility: inherit; font-family: Roboto, sans-serif; font-size: 12px; font-weight: 200;" fill="rgb(33, 33, 33)" stroke="none" stroke-width="1px">0</text><text x="200.54166666666666" y="0" dx="0em" dy="0.95em" style="text-anchor: middle; visibility: inherit; font-family: Roboto, sans-serif; font-size: 12px; font-weight: 200;" fill="rgb(33, 33, 33)" stroke="none" stroke-width="1px">1k</text><text x="300.8125" y="0" dx="0em" dy="0.95em" style="text-anchor: middle; visibility: inherit; font-family: Roboto, sans-serif; font-size: 12px; font-weight: 200;" fill="rgb(33, 33, 33)" stroke="none" stroke-width="1px">2k</text><text x="401.0833333333333" y="0" dx="0em" dy="0.95em" style="text-anchor: middle; visibility: inherit; font-family: Roboto, sans-serif; font-size: 12px; font-weight: 200;" fill="rgb(33, 33, 33)" stroke="none" stroke-width="1px">3k</text><text x="501.3541666666667" y="0" dx="0em" dy="0.95em" style="text-anchor: middle; visibility: inherit; font-family: Roboto, sans-serif; font-size: 12px; font-weight: 200;" fill="rgb(33, 33, 33)" stroke="none" stroke-width="1px">4k</text><text x="601.625" y="0" dx="0em" dy="0.95em" style="text-anchor: middle; visibility: inherit; font-family: Roboto, sans-serif; font-size: 12px; font-weight: 200;" fill="rgb(33, 33, 33)" stroke="none" stroke-width="1px">5k</text><text x="701.8958333333334" y="0" dx="0em" dy="0.95em" style="text-anchor: middle; visibility: inherit; font-family: Roboto, sans-serif; font-size: 12px; font-weight: 200;" fill="rgb(33, 33, 33)" stroke="none" stroke-width="1px">6k</text><text x="802.1666666666666" y="0" dx="0em" dy="0.95em" style="text-anchor: middle; visibility: inherit; font-family: Roboto, sans-serif; font-size: 12px; font-weight: 200;" fill="rgb(33, 33, 33)" stroke="none" stroke-width="1px">7k</text><text x="902.4375" y="0" dx="0em" dy="0.95em" style="text-anchor: middle; visibility: hidden; font-family: Roboto, sans-serif; font-size: 12px; font-weight: 200;" fill="rgb(33, 33, 33)" stroke="none" stroke-width="1px">8k</text></g><line x1="0" y1="0" x2="902.4375" y2="0" fill="rgb(0, 0, 0)" stroke="rgb(204, 204, 204)" stroke-width="1px"></line></g></g></g></g></svg>